<?xml version="1.0" standalone="no"?>
<!DOCTYPE svg PUBLIC "-//W3C//DTD SVG 20010904//EN"
 "http://www.w3.org/TR/2001/REC-SVG-20010904/DTD/svg10.dtd">
<svg version="1.0" xmlns="http://www.w3.org/2000/svg" 
  width="30pt" height="30pt"  viewBox="0 0 1600.000000 1600.000000"
 preserveAspectRatio="xMidYMid meet">
<metadata>
Created by potrace 1.15, written by Peter Selinger 2001-2017
</metadata>
<g transform="translate(0.000000,1600.000000) scale(0.100000,-0.100000)"
fill="#8a56d8" stroke="none">
<path d="M3416 13984 c-545 -85 -1014 -432 -1251 -927 -62 -128 -105 -254
-137 -400 l-23 -102 0 -4555 0 -4555 23 -102 c72 -329 215 -601 434 -829 238
-248 529 -408 881 -486 l102 -23 4555 0 4555 0 102 23 c213 47 438 140 598
247 369 248 618 619 717 1068 l23 102 0 4555 0 4555 -23 102 c-78 352 -238
643 -486 881 -226 217 -493 358 -824 434 l-97 23 -4530 1 c-3815 2 -4544 0
-4619 -12z m5059 -1994 c646 -47 1127 -205 1620 -533 416 -276 655 -575 794
-992 83 -250 117 -508 108 -819 -11 -358 -88 -660 -237 -920 -134 -235 -370
-472 -594 -600 l-77 -44 58 -17 c83 -24 265 -100 342 -142 288 -159 529 -411
665 -696 84 -178 141 -379 166 -587 14 -118 14 -461 0 -600 -117 -1167 -843
-1832 -2185 -2000 -305 -38 -435 -40 -2307 -40 l-1828 0 0 4000 0 4000 1668 0
c1031 0 1720 -4 1807 -10z"/>
<path d="M7000 9750 l0 -911 798 3 797 3 85 29 c398 133 650 472 650 876 0
404 -252 743 -650 876 l-85 29 -797 3 -798 3 0 -911z"/>
<path d="M7000 6335 l0 -996 928 3 927 3 75 23 c174 54 319 140 441 261 125
125 216 283 260 448 27 100 37 313 19 420 -26 165 -99 328 -207 462 -132 166
-306 279 -528 343 l-80 23 -917 3 -918 3 0 -996z"/>
</g>
</svg>
