<?xml version="1.0" standalone="no"?>
<!DOCTYPE svg PUBLIC "-//W3C//DTD SVG 20010904//EN"
 "http://www.w3.org/TR/2001/REC-SVG-20010904/DTD/svg10.dtd">
<svg version="1.0" xmlns="http://www.w3.org/2000/svg"
 width="30pt" height="30pt" viewBox="0 0 512.000000 512.000000"
 preserveAspectRatio="xMidYMid meet">
<metadata>
Created by potrace 1.15, written by Peter Selinger 2001-2017
</metadata>
<g transform="translate(0.000000,512.000000) scale(0.100000,-0.100000)"
fill="#00b0ff" stroke="none">
<path d="M533 4124 l-113 -66 0 -858 0 -858 106 -61 c58 -34 110 -61 114 -61
4 0 56 28 114 61 l106 62 0 608 c0 335 2 609 5 609 3 0 239 -135 524 -300 286
-165 525 -300 531 -300 6 0 245 135 530 300 286 165 522 300 525 300 3 0 5
-220 5 -488 l0 -489 -640 -369 -640 -369 0 -136 0 -137 747 -431 746 -432 166
96 c91 52 429 247 751 433 l585 338 3 601 2 601 -106 61 c-58 34 -110 61 -114
61 -4 0 -56 -27 -114 -61 l-106 -61 0 -473 0 -473 -517 -298 c-285 -164 -525
-302 -534 -307 -12 -7 -117 49 -438 233 -238 138 -418 247 -413 252 5 5 244
145 533 312 l524 303 3 866 2 865 -115 66 c-63 36 -117 66 -120 66 -3 0 -289
-164 -635 -364 l-630 -364 -622 360 c-343 198 -630 362 -638 364 -8 2 -66 -26
-127 -62z"/>
<path d="M4368 3357 l-108 -62 0 -130 0 -130 110 -63 110 -63 110 63 110 63 0
130 0 130 -109 63 c-60 34 -110 62 -112 62 -2 0 -52 -29 -111 -63z"/>
</g>
</svg>
